<svg class="icon" viewBox="0 0 1024 1024" version="1.1" xmlns="http://www.w3.org/2000/svg" p-id="4986">
  <path d="M759.466667 484.266667c55.466667-34.133333 93.866667-93.866667 93.866666-164.266667 0-106.666667-87.466667-192-192-192-51.2 0-98.133333 21.333333-134.4 55.466667 10.666667 8.533333 21.333333 17.066667 32 27.733333C586.666667 185.6 622.933333 170.666667 661.333333 170.666667c83.2 0 149.333333 66.133333 149.333334 149.333333s-66.133333 149.333333-149.333334 149.333333c-10.666667 0-19.2 0-27.733333-2.133333-4.266667 17.066667-8.533333 34.133333-17.066667 49.066667 14.933333-2.133333 29.866667-4.266667 44.8-4.266667 153.6 0 277.333333 123.733333 277.333334 277.333333 0 38.4-8.533333 74.666667-21.333334 106.666667h44.8c12.8-34.133333 19.2-68.266667 19.2-106.666667 0-142.933333-93.866667-262.4-221.866666-305.066666zM362.666667 213.333333c-104.533333 0-192 85.333333-192 192s87.466667 192 192 192c106.666667 0 192-85.333333 192-192s-87.466667-192-192-192z m0 341.333334c-83.2 0-149.333333-66.133333-149.333334-149.333334s66.133333-149.333333 149.333334-149.333333 149.333333 66.133333 149.333333 149.333333-66.133333 149.333333-149.333333 149.333334zM87.466667 896c-2.133333-6.4-2.133333-14.933333-2.133334-21.333333 0-153.6 123.733333-277.333333 277.333334-277.333334s277.333333 123.733333 277.333333 277.333334c0 6.4 0 14.933333-2.133333 21.333333h42.666666c0-6.4 2.133333-14.933333 2.133334-21.333333 0-177.066667-142.933333-320-320-320S42.666667 697.6 42.666667 874.666667c0 6.4 0 14.933333 2.133333 21.333333h42.666667z" p-id="4987"></path>
</svg>