<svg class="icon" viewBox="0 0 1024 1024" version="1.1" xmlns="http://www.w3.org/2000/svg" p-id="1933">
  <path d="M660.48 488.106667l-54.613333 337.92c-1.706667 11.946667-11.946667 20.48-25.6 20.48h-34.133334V660.48c0-18.773333-15.36-34.133333-34.133333-34.133333s-34.133333 15.36-34.133333 34.133333v186.026667h-35.84c-11.946667 0-23.893333-8.533333-25.6-20.48l-54.613334-337.92c-133.12 3.413333-240.64 110.933333-240.64 244.053333v232.106667c0 13.653333 11.946667 25.6 25.6 25.6h727.04c13.653333 0 25.6-11.946667 25.6-25.6V732.16c1.706667-133.12-105.813333-240.64-238.933333-244.053333zM512 34.133333c-112.64 0-206.506667 92.16-206.506667 206.506667s93.866667 204.8 206.506667 204.8S718.506667 353.28 718.506667 238.933333 624.64 34.133333 512 34.133333z" fill="#333333" p-id="1934"></path>
</svg>